<svg width="20" height="20" viewBox="0 0 20 20" fill="none" xmlns="http://www.w3.org/2000/svg">
<path d="M18.5461 3.61263C18.5344 3.59153 18.518 3.57044 18.4992 3.55403C18.382 3.43685 18.1922 3.43685 18.075 3.55403L14.0367 7.59231L12.4453 6.00091L16.4859 1.96028C16.5047 1.94153 16.5187 1.92278 16.5328 1.90169C16.6172 1.75872 16.5703 1.57591 16.4273 1.49153C14.1258 0.132158 11.1117 0.443877 9.13124 2.422C7.56093 3.99231 7.04062 6.21888 7.57265 8.22044L0.705461 15.0876C0.635149 15.1579 0.639836 15.2728 0.712492 15.3454L4.68984 19.3228C4.76249 19.3954 4.87968 19.4001 4.94765 19.3298L11.8125 12.465C13.8164 12.9993 16.043 12.4814 17.6156 10.9087C19.5937 8.92825 19.9055 5.91419 18.5461 3.61263ZM16.4226 9.71341C15.0609 11.0751 13.0172 11.3376 11.393 10.5009L11.1867 10.7072L11.1844 10.7048L4.76249 17.129L2.90624 15.2728L8.29921 9.87981C8.29921 9.87981 8.29921 9.88216 8.30155 9.88216L9.53905 8.64466C8.70234 7.02044 8.96484 4.97669 10.3266 3.61497C10.7657 3.17539 11.2946 2.8358 11.8771 2.6194C12.4596 2.40299 13.0819 2.31488 13.7016 2.36106L10.5867 5.47356C10.446 5.61441 10.367 5.80535 10.367 6.00442C10.367 6.2035 10.446 6.39444 10.5867 6.53528L13.5047 9.45325C13.6455 9.59394 13.8365 9.67297 14.0355 9.67297C14.2346 9.67297 14.4256 9.59394 14.5664 9.45325L17.6789 6.34075C17.7656 7.55481 17.3414 8.797 16.4226 9.71341Z" fill="#001848"/>
</svg>
