<svg width="18" height="18" viewBox="0 0 18 18" fill="none" xmlns="http://www.w3.org/2000/svg">
<path d="M17.399 0.613783C16.879 0.0937829 16.039 0.0937829 15.519 0.613783L8.99898 7.12045L2.47898 0.600449C1.95898 0.0804492 1.11898 0.0804492 0.598984 0.600449C0.0789844 1.12045 0.0789844 1.96045 0.598984 2.48045L7.11899 9.00045L0.598984 15.5204C0.0789844 16.0404 0.0789844 16.8804 0.598984 17.4004C1.11898 17.9204 1.95898 17.9204 2.47898 17.4004L8.99898 10.8804L15.519 17.4004C16.039 17.9204 16.879 17.9204 17.399 17.4004C17.919 16.8804 17.919 16.0404 17.399 15.5204L10.879 9.00045L17.399 2.48045C17.9057 1.97378 17.9057 1.12045 17.399 0.613783Z" fill="#D31E3D"/>
</svg>
