<svg width="20" height="21" viewBox="0 0 20 21" fill="none" xmlns="http://www.w3.org/2000/svg">
<path d="M2.00033 17.9998H18.0003C18.7337 17.9998 19.3337 18.5998 19.3337 19.3331C19.3337 20.0664 18.7337 20.6664 18.0003 20.6664H2.00033C1.26699 20.6664 0.666992 20.0664 0.666992 19.3331C0.666992 18.5998 1.26699 17.9998 2.00033 17.9998ZM8.68033 12.5331C7.64033 13.5598 5.96032 13.5598 4.92032 12.5198L2.00033 9.59976C1.26699 8.86643 1.28033 7.67976 2.04033 6.97309C2.76033 6.27976 3.90699 6.30643 4.60033 6.99976L6.80033 9.19976L15.3737 0.626426C16.0937 -0.0935742 17.2537 -0.0935742 17.9737 0.626426L18.027 0.67976C18.747 1.39976 18.747 2.57309 18.0137 3.29309L8.68033 12.5331Z" fill="#20B245"/>
</svg>
